<svg width="16" height="16" viewBox="0 0 16 16" fill="none" xmlns="http://www.w3.org/2000/svg">
<path d="M14.457 6.23197L9.16404 0.938965L7.04304 3.06096L11.982 7.99997L7.04304 12.939L9.16404 15.061L14.457 9.76797C14.6893 9.53581 14.8735 9.26018 14.9991 8.95683C15.1248 8.65347 15.1895 8.32833 15.1895 7.99997C15.1895 7.67161 15.1248 7.34646 14.9991 7.04311C14.8735 6.73975 14.6893 6.46412 14.457 6.23197Z" fill="#FBF5F3"/>
<path d="M8.16397 6.93897L2.16397 0.938965L0.0429688 3.06096L4.98197 7.99997L0.0429688 12.939L2.16397 15.061L8.16397 9.06097C8.30336 8.92167 8.41393 8.75626 8.48938 8.57421C8.56482 8.39216 8.60365 8.19703 8.60365 7.99997C8.60365 7.8029 8.56482 7.60777 8.48938 7.42572C8.41393 7.24367 8.30336 7.07827 8.16397 6.93897Z" fill="#FBF5F3"/>
</svg>
