<svg width="92" height="27" viewBox="0 0 92 27" fill="none" xmlns="http://www.w3.org/2000/svg">
<path d="M7.08594 26.3516C5.80859 26.3516 4.63086 26.0234 3.55273 25.3672C2.48633 24.7109 1.625 23.8379 0.96875 22.748C0.324219 21.6465 0.00195312 20.4395 0.00195312 19.127L0.0371094 7.71875C0.0371094 6.38281 0.359375 5.18164 1.00391 4.11523C1.63672 3.03711 2.49219 2.17578 3.57031 1.53125C4.64844 0.875 5.82031 0.546875 7.08594 0.546875C8.39844 0.546875 9.57617 0.869141 10.6191 1.51367C11.6738 2.1582 12.5176 3.02539 13.1504 4.11523C13.7949 5.19336 14.1172 6.39453 14.1172 7.71875L14.1523 19.127C14.1523 20.4395 13.8359 21.6406 13.2031 22.7305C12.5586 23.832 11.7031 24.7109 10.6367 25.3672C9.57031 26.0234 8.38672 26.3516 7.08594 26.3516ZM7.08594 22.0098C7.8125 22.0098 8.44531 21.7168 8.98438 21.1309C9.52344 20.5332 9.79297 19.8652 9.79297 19.127L9.75781 7.71875C9.75781 6.92188 9.50586 6.24805 9.00195 5.69727C8.49805 5.14648 7.85938 4.87109 7.08594 4.87109C6.34766 4.87109 5.71484 5.14062 5.1875 5.67969C4.66016 6.21875 4.39648 6.89844 4.39648 7.71875V19.127C4.39648 19.9121 4.66016 20.5918 5.1875 21.166C5.71484 21.7285 6.34766 22.0098 7.08594 22.0098ZM23.5039 26.3516C22.2031 26.3516 21.0137 26.0234 19.9355 25.3672C18.8691 24.7109 18.0195 23.832 17.3867 22.7305C16.7656 21.6172 16.4551 20.3809 16.4551 19.0215L16.4902 7.78906C16.4902 6.45312 16.7949 5.24609 17.4043 4.16797C18.0137 3.07812 18.8516 2.20508 19.918 1.54883C20.9961 0.880859 22.1914 0.546875 23.5039 0.546875C24.8398 0.546875 26.0293 0.869141 27.0723 1.51367C28.127 2.1582 28.9648 3.03125 29.5859 4.13281C30.2188 5.22266 30.5352 6.44141 30.5352 7.78906V9.44141C30.5352 9.53516 30.4883 9.58203 30.3945 9.58203H26.3516C26.2578 9.58203 26.2109 9.53516 26.2109 9.44141V7.78906C26.2109 6.99219 25.9531 6.30664 25.4375 5.73242C24.9219 5.1582 24.2773 4.87109 23.5039 4.87109C22.6484 4.87109 21.9922 5.16406 21.5352 5.75C21.0781 6.33594 20.8496 7.01562 20.8496 7.78906V19.0215C20.8496 19.9004 21.1074 20.6211 21.623 21.1836C22.1387 21.7344 22.7656 22.0098 23.5039 22.0098C24.2773 22.0098 24.9219 21.7051 25.4375 21.0957C25.9531 20.4746 26.2109 19.7832 26.2109 19.0215V17.3516C26.2109 17.2578 26.2578 17.2109 26.3516 17.2109H30.4297C30.5234 17.2109 30.5703 17.2578 30.5703 17.3516V19.0215C30.5703 20.3691 30.2539 21.5996 29.6211 22.7129C28.9766 23.8145 28.127 24.6992 27.0723 25.3672C26.0176 26.0234 24.8281 26.3516 23.5039 26.3516ZM44.9668 26H33.3301C33.2363 26 33.1895 25.9414 33.1895 25.8242L33.2246 1.12695C33.2246 1.00977 33.2832 0.951172 33.4004 0.951172H37.4082C37.5254 0.951172 37.584 1.00977 37.584 1.12695L37.5488 21.5703H44.9668C45.084 21.5703 45.1426 21.6289 45.1426 21.7461V25.8242C45.1426 25.9414 45.084 26 44.9668 26ZM54.1602 26.3516C52.8828 26.3516 51.7051 26.0234 50.627 25.3672C49.5605 24.7109 48.6992 23.8379 48.043 22.748C47.3984 21.6465 47.0762 20.4395 47.0762 19.127L47.1113 7.71875C47.1113 6.38281 47.4336 5.18164 48.0781 4.11523C48.7109 3.03711 49.5664 2.17578 50.6445 1.53125C51.7227 0.875 52.8945 0.546875 54.1602 0.546875C55.4727 0.546875 56.6504 0.869141 57.6934 1.51367C58.748 2.1582 59.5918 3.02539 60.2246 4.11523C60.8691 5.19336 61.1914 6.39453 61.1914 7.71875L61.2266 19.127C61.2266 20.4395 60.9102 21.6406 60.2773 22.7305C59.6328 23.832 58.7773 24.7109 57.7109 25.3672C56.6445 26.0234 55.4609 26.3516 54.1602 26.3516ZM54.1602 22.0098C54.8867 22.0098 55.5195 21.7168 56.0586 21.1309C56.5977 20.5332 56.8672 19.8652 56.8672 19.127L56.832 7.71875C56.832 6.92188 56.5801 6.24805 56.0762 5.69727C55.5723 5.14648 54.9336 4.87109 54.1602 4.87109C53.4219 4.87109 52.7891 5.14062 52.2617 5.67969C51.7344 6.21875 51.4707 6.89844 51.4707 7.71875V19.127C51.4707 19.9121 51.7344 20.5918 52.2617 21.166C52.7891 21.7285 53.4219 22.0098 54.1602 22.0098ZM70.0684 26.3516C68.791 26.3516 67.6133 26.0234 66.5352 25.3672C65.4688 24.7109 64.6133 23.8379 63.9688 22.748C63.3359 21.6465 63.0195 20.4395 63.0195 19.127V17.4746C63.0195 17.3457 63.0781 17.2812 63.1953 17.2812H67.2383C67.332 17.2812 67.3789 17.3457 67.3789 17.4746V19.127C67.3789 19.9121 67.6426 20.5918 68.1699 21.166C68.6973 21.7285 69.3301 22.0098 70.0684 22.0098C70.8184 22.0098 71.457 21.7227 71.9844 21.1484C72.5117 20.5625 72.7754 19.8887 72.7754 19.127C72.7754 18.248 72.2012 17.4805 71.0527 16.8242C70.8652 16.707 70.6191 16.5664 70.3145 16.4023C70.0215 16.2266 69.6699 16.0273 69.2598 15.8047C68.8496 15.582 68.4512 15.3652 68.0645 15.1543C67.6777 14.9316 67.3027 14.7207 66.9395 14.5215C65.627 13.748 64.6484 12.7812 64.0039 11.6211C63.3711 10.4492 63.0547 9.13672 63.0547 7.68359C63.0547 6.34766 63.3828 5.14062 64.0391 4.0625C64.6953 2.99609 65.5508 2.15234 66.6055 1.53125C67.6719 0.898438 68.8262 0.582031 70.0684 0.582031C71.3457 0.582031 72.5176 0.898438 73.584 1.53125C74.6504 2.17578 75.5 3.03125 76.1328 4.09766C76.7773 5.16406 77.0996 6.35938 77.0996 7.68359V10.6367C77.0996 10.7305 77.0527 10.7773 76.959 10.7773H72.916C72.8223 10.7773 72.7754 10.7305 72.7754 10.6367L72.7402 7.68359C72.7402 6.83984 72.4766 6.1543 71.9492 5.62695C71.4219 5.09961 70.7949 4.83594 70.0684 4.83594C69.3301 4.83594 68.6973 5.11719 68.1699 5.67969C67.6426 6.24219 67.3789 6.91016 67.3789 7.68359C67.3789 8.46875 67.543 9.125 67.8711 9.65234C68.2109 10.1797 68.8262 10.6836 69.7168 11.1641C69.8105 11.2109 70.0273 11.3281 70.3672 11.5156C70.707 11.7031 71.082 11.9141 71.4922 12.1484C71.9141 12.3711 72.2949 12.5762 72.6348 12.7637C72.9746 12.9395 73.1797 13.0449 73.25 13.0801C74.4453 13.748 75.3887 14.5684 76.0801 15.541C76.7832 16.5137 77.1348 17.709 77.1348 19.127C77.1348 20.498 76.8184 21.7285 76.1855 22.8184C75.541 23.9082 74.6855 24.7695 73.6191 25.4023C72.5527 26.0352 71.3691 26.3516 70.0684 26.3516ZM91.4082 26H79.7715C79.6777 26 79.6309 25.9414 79.6309 25.8242L79.666 1.0918C79.666 0.998047 79.7129 0.951172 79.8066 0.951172H91.373C91.4668 0.951172 91.5137 1.00977 91.5137 1.12695V5.15234C91.5137 5.24609 91.4668 5.29297 91.373 5.29297H83.9902V10.918H91.373C91.4668 10.918 91.5137 10.9648 91.5137 11.0586L91.5488 15.1367C91.5488 15.2305 91.502 15.2773 91.4082 15.2773H83.9902V21.5703H91.4082C91.502 21.5703 91.5488 21.6289 91.5488 21.7461V25.8594C91.5488 25.9531 91.502 26 91.4082 26Z" fill="#091540"/>
</svg>
